<svg width="84" height="84" viewBox="0 0 84 84" fill="none" xmlns="http://www.w3.org/2000/svg">
<path d="M21 45C22.6569 45 24 43.6569 24 42C24 40.3431 22.6569 39 21 39C19.3431 39 18 40.3431 18 42C18 43.6569 19.3431 45 21 45Z" stroke="white" stroke-opacity="0.49" stroke-linecap="round" stroke-linejoin="round"/>
<path d="M40.5 45C42.1569 45 43.5 43.6569 43.5 42C43.5 40.3431 42.1569 39 40.5 39C38.8431 39 37.5 40.3431 37.5 42C37.5 43.6569 38.8431 45 40.5 45Z" stroke="white" stroke-opacity="0.49" stroke-linecap="round" stroke-linejoin="round"/>
<path d="M60 45C61.6569 45 63 43.6569 63 42C63 40.3431 61.6569 39 60 39C58.3431 39 57 40.3431 57 42C57 43.6569 58.3431 45 60 45Z" stroke="white" stroke-opacity="0.49" stroke-linecap="round" stroke-linejoin="round"/>
<path d="M42 3.00001C34.9454 3.0022 28.0236 4.91784 21.9717 8.54288C15.9197 12.1679 10.9644 17.3666 7.63341 23.5853C4.30244 29.8039 2.72059 36.8096 3.05634 43.8561C3.39208 50.9027 5.63286 57.7262 9.54 63.6L3 81L24.9 77.04C30.1734 79.617 35.9605 80.9704 41.8299 80.9995C47.6992 81.0286 53.4994 79.7325 58.7982 77.2079C64.0969 74.6833 68.7574 70.9952 72.4324 66.4187C76.1073 61.8421 78.7019 56.4951 80.0227 50.7763C81.3435 45.0574 81.3565 39.1141 80.0606 33.3896C78.7648 27.665 76.1936 22.3067 72.5386 17.7142C68.8836 13.1217 64.2392 9.41333 58.9516 6.86562C53.6639 4.31791 47.8694 2.99654 42 3.00001V3.00001Z" stroke="white" stroke-opacity="0.49" stroke-linecap="round" stroke-linejoin="round"/>
</svg>
