<svg width="26" height="26" viewBox="0 0 26 26" fill="none" xmlns="http://www.w3.org/2000/svg">
<path d="M24.57 11.7558C24.878 12.0971 25.0485 12.5404 25.0485 13.0001C25.0485 13.4598 24.878 13.9031 24.57 14.2444C22.62 16.343 18.1814 20.4287 13 20.4287C7.81857 20.4287 3.38 16.343 1.43 14.2444C1.12201 13.9031 0.95153 13.4598 0.95153 13.0001C0.95153 12.5404 1.12201 12.0971 1.43 11.7558C3.38 9.65725 7.81857 5.57153 13 5.57153C18.1814 5.57153 22.62 9.65725 24.57 11.7558Z" stroke="#1B225C" stroke-linecap="round" stroke-linejoin="round"/>
<path d="M13 16.7145C15.0513 16.7145 16.7143 15.0515 16.7143 13.0002C16.7143 10.9488 15.0513 9.28589 13 9.28589C10.9487 9.28589 9.28572 10.9488 9.28572 13.0002C9.28572 15.0515 10.9487 16.7145 13 16.7145Z" stroke="#1B225C" stroke-linecap="round" stroke-linejoin="round"/>
</svg>
