<svg width="26" height="26" viewBox="0 0 26 26" fill="none" xmlns="http://www.w3.org/2000/svg">
<g clip-path="url(#clip0_39_242)">
<path d="M4.64286 13.9285H6.5C6.99255 13.9285 7.46492 14.1241 7.8132 14.4724C8.16148 14.8207 8.35714 15.2931 8.35714 15.7856V23.2142C8.35714 23.7067 8.16148 24.1791 7.8132 24.5274C7.46492 24.8757 6.99255 25.0713 6.5 25.0713H2.78572C2.29317 25.0713 1.8208 24.8757 1.47252 24.5274C1.12424 24.1791 0.928574 23.7067 0.928574 23.2142V12.9999C0.928574 9.79835 2.20038 6.72794 4.46421 4.46411C6.72805 2.20027 9.79846 0.928467 13 0.928467C16.2015 0.928467 19.272 2.20027 21.5358 4.46411C23.7996 6.72794 25.0714 9.79835 25.0714 12.9999V23.2142C25.0714 23.7067 24.8758 24.1791 24.5275 24.5274C24.1792 24.8757 23.7068 25.0713 23.2143 25.0713H19.5C19.0075 25.0713 18.5351 24.8757 18.1868 24.5274C17.8385 24.1791 17.6429 23.7067 17.6429 23.2142V15.7856C17.6429 15.2931 17.8385 14.8207 18.1868 14.4724C18.5351 14.1241 19.0075 13.9285 19.5 13.9285H21.3571" stroke="#1B225C" stroke-linecap="round" stroke-linejoin="round"/>
</g>
<defs>
<clipPath id="clip0_39_242">
<rect width="26" height="26" fill="white"/>
</clipPath>
</defs>
</svg>
