<svg width="26" height="26" viewBox="0 0 26 26" fill="none" xmlns="http://www.w3.org/2000/svg">
<path d="M24.1429 12.8885C24.1254 14.822 23.5732 16.7129 22.5472 18.3519C21.5212 19.9908 20.0616 21.3137 18.33 22.1742L13 25.0713L7.67 22.2856C5.92154 21.4167 4.45075 20.0764 3.42362 18.4159C2.3965 16.7554 1.85393 14.8409 1.85715 12.8885V2.78561C1.85715 2.29306 2.05281 1.82069 2.40109 1.47241C2.74937 1.12413 3.22174 0.928467 3.71429 0.928467H22.2857C22.7783 0.928467 23.2506 1.12413 23.5989 1.47241C23.9472 1.82069 24.1429 2.29306 24.1429 2.78561V12.8885Z" stroke="#1B225C" stroke-linecap="round" stroke-linejoin="round"/>
<path d="M10.2143 14.857C10.2143 15.5958 10.5078 16.3044 11.0302 16.8268C11.5526 17.3492 12.2612 17.6427 13 17.6427C13.3729 17.6704 13.7474 17.6174 14.098 17.4872C14.4486 17.357 14.7669 17.1528 15.0314 16.8883C15.2958 16.6239 15.5001 16.3056 15.6302 15.955C15.7604 15.6044 15.8135 15.2299 15.7857 14.857C15.7857 12.0713 10.2143 12.0713 10.2143 9.28555C10.1865 8.91263 10.2396 8.53811 10.3698 8.18754C10.4999 7.83698 10.7042 7.51863 10.9686 7.2542C11.2331 6.98977 11.5514 6.7855 11.902 6.65531C12.2526 6.52513 12.6271 6.4721 13 6.49984C13.7388 6.49984 14.4474 6.79333 14.9698 7.31576C15.4922 7.83818 15.7857 8.54674 15.7857 9.28555" stroke="#1B225C" stroke-linecap="round" stroke-linejoin="round"/>
<path d="M13 6.49997V4.64282" stroke="#1B225C" stroke-linecap="round" stroke-linejoin="round"/>
<path d="M13 19.5V17.6428" stroke="#1B225C" stroke-linecap="round" stroke-linejoin="round"/>
</svg>
